<?xml version="1.0" encoding="UTF-8"?>
<svg id="_レイヤー_1" data-name="レイヤー 1" xmlns="http://www.w3.org/2000/svg" viewBox="0 0 353.42 275.64">
  <defs>
    <style>
      .cls-1 {
        fill: #e0e43b;
      }

      .cls-2 {
        fill: #6fc3b3;
      }

      .cls-3 {
        fill: #d6bb18;
      }

      .cls-4 {
        fill: #0c6fa0;
      }
    </style>
  </defs>
  <g id="_ロゴマーク_カラー_" data-name="ロゴマーク（カラー）">
    <g>
      <path class="cls-1" d="m333.12,149.46c11.07,0,20.05,8.98,20.05,20.05s-8.98,20.04-20.05,20.04-20.04-8.97-20.04-20.04,8.97-20.05,20.04-20.05Z"/>
      <path class="cls-3" d="m304.27,98.13c11.74,11.74,11.74,30.78,0,42.52s-30.78,11.74-42.52,0c-3.87-3.87-6.47-8.54-7.79-13.48h.01s-8.29-30.95-8.29-30.95c3.29-.87,6.41-2.6,8.99-5.18s4.31-5.69,5.18-8.99l30.94,8.29h0c4.93,1.31,9.61,3.91,13.48,7.78Z"/>
      <path class="cls-2" d="m216.61,175.16l6.8-51.63,41.31,31.71h0c4.06,3.1,7.37,7.28,9.47,12.34,6.36,15.35-.93,32.94-16.27,39.29-15.34,6.35-32.93-.93-39.28-16.27-2.1-5.06-2.71-10.36-2.04-15.43h0Z"/>
      <path class="cls-1" d="m240.49,76.87l19.36,5.19c-.87,3.29-2.6,6.41-5.18,8.99s-5.69,4.31-8.99,5.18l-5.19-19.36Z"/>
      <path class="cls-2" d="m227.94,89.11c.44-3.37.04-6.92-1.36-10.29-1.83-4.43-5.08-7.85-8.99-9.96l-5.45-20.33,33.53,8.99h0c3.29.87,6.4,2.6,8.99,5.18,5.24,5.25,6.97,12.68,5.18,19.36l-19.36-5.19,5.19,19.36c-6.18,1.65-13.01.3-18.15-4.07l.4-3.05h0Z"/>
      <path class="cls-4" d="m221.14,82.06l-3.54-13.2c3.91,2.11,7.16,5.53,8.99,9.96,1.4,3.37,1.8,6.92,1.36,10.29h0l-.4,3.05c-.42-.35-.82-.72-1.22-1.12-2.58-2.58-4.32-5.69-5.19-8.99h0Z"/>
      <path class="cls-1" d="m217.59,68.86l3.54,13.2h0c.87,3.29,2.61,6.41,5.19,8.99.4.4.8.77,1.22,1.12l-4.13,31.37-26.87-20.62c.14-.95.22-1.93.22-2.92,0-6.78-3.37-12.78-8.53-16.41.99-6.74,5.41-12.81,12.17-15.61,5.8-2.4,12.08-1.88,17.2.89Z"/>
      <path class="cls-2" d="m195.86,102.4h0c-2.7-2.06-4.92-4.85-6.32-8.23-1.44-3.47-1.83-7.11-1.32-10.58,5.16,3.62,8.53,9.63,8.53,16.41,0,.99-.07,1.97-.22,2.92l-.68-.52Z"/>
      <path class="cls-3" d="m176.71,140.08l26.03,45.1h0c2.56,4.42,4.03,9.55,4.03,15.03,0,8.41-3.45,16-9.01,21.46l-21.06-36.49-21.07,36.49c-5.56-5.46-9.01-13.05-9.01-21.46,0-5.48,1.47-10.61,4.03-15.04h0s26.04-45.09,26.04-45.09Z"/>
      <path class="cls-1" d="m201.45,62.85c0,3.16-2.56,5.71-5.71,5.71s-5.72-2.55-5.72-5.71,2.56-5.71,5.72-5.71,5.71,2.55,5.71,5.71Z"/>
      <path class="cls-4" d="m165.19,83.6c3.26-2.31,7.23-3.65,11.52-3.65s8.25,1.34,11.51,3.64c-.51,3.47-.12,7.11,1.32,10.58,1.4,3.37,3.62,6.16,6.32,8.23h0s.68.52.68.52c-.37,2.55-1.23,4.95-2.47,7.1h0l-17.36,30.07-17.36-30.07c-1.24-2.15-2.1-4.55-2.47-7.1l.68-.52h0c2.71-2.06,4.92-4.85,6.32-8.23,1.44-3.47,1.83-7.11,1.32-10.57Z"/>
      <path class="cls-1" d="m176.71,185.19l21.06,36.49c-5.42,5.32-12.86,8.61-21.06,8.61s-15.64-3.29-21.07-8.61l21.07-36.49Z"/>
      <path class="cls-3" d="m176.71.25c12.62,0,22.86,10.24,22.86,22.87s-10.24,22.86-22.86,22.86-22.87-10.24-22.87-22.86S164.08.25,176.71.25Z"/>
      <path class="cls-2" d="m151.84,62.85c0-3.16,2.56-5.71,5.72-5.71s5.71,2.55,5.71,5.71-2.55,5.71-5.71,5.71-5.72-2.55-5.72-5.71Z"/>
      <path class="cls-1" d="m156.88,102.91c-.14-.95-.22-1.92-.22-2.92,0-6.78,3.37-12.78,8.53-16.4.51,3.46.12,7.1-1.32,10.57-1.4,3.37-3.61,6.16-6.32,8.23h0s-.68.51-.68.51Z"/>
      <path class="cls-3" d="m155.65,221.68c5.42,5.32,12.87,8.61,21.07,8.61s15.63-3.29,21.06-8.61l4.97,8.61h0c2.56,4.42,4.03,9.55,4.03,15.03,0,16.61-13.46,30.07-30.07,30.07s-30.07-13.46-30.07-30.07c0-5.48,1.47-10.61,4.03-15.04h0s4.97-8.6,4.97-8.6Z"/>
      <path class="cls-2" d="m135.83,68.86c5.12-2.76,11.4-3.29,17.2-.89,6.76,2.8,11.17,8.87,12.17,15.62-5.16,3.62-8.53,9.62-8.53,16.4,0,.99.07,1.97.22,2.92l-26.87,20.62-4.13-31.37c.42-.35.82-.72,1.22-1.12,2.58-2.58,4.32-5.69,5.2-8.99h0l3.54-13.2Z"/>
      <path class="cls-1" d="m130.01,123.54l6.8,51.63h0c.67,5.07.06,10.37-2.04,15.43-6.35,15.35-23.94,22.62-39.28,16.27-15.35-6.35-22.63-23.94-16.27-39.29,2.1-5.06,5.42-9.24,9.47-12.35h0s41.31-31.7,41.31-31.7Z"/>
      <path class="cls-4" d="m135.83,68.86l-3.54,13.2h0c-.88,3.29-2.61,6.41-5.2,8.99-.4.4-.8.77-1.22,1.12l-.4-3.05c-.45-3.37-.04-6.92,1.36-10.29,1.83-4.43,5.07-7.85,8.99-9.96Z"/>
      <path class="cls-1" d="m135.83,68.86c-3.91,2.11-7.15,5.53-8.99,9.96-1.4,3.37-1.81,6.92-1.36,10.29l.4,3.05c-5.14,4.37-11.96,5.72-18.15,4.07l5.19-19.36-19.36,5.19c-1.79-6.69-.06-14.12,5.19-19.36,2.58-2.58,5.69-4.31,8.99-5.19h0s33.53-8.98,33.53-8.98l-5.45,20.33Z"/>
      <path class="cls-2" d="m112.93,76.87l-5.19,19.36c-3.29-.87-6.4-2.6-8.98-5.18s-4.32-5.69-5.19-8.99l19.36-5.19Z"/>
      <path class="cls-3" d="m98.76,91.05c2.58,2.58,5.69,4.31,8.98,5.18l-8.29,30.94h0c-1.32,4.94-3.91,9.61-7.79,13.48-11.74,11.74-30.78,11.74-42.52,0s-11.74-30.78,0-42.52c3.88-3.87,8.54-6.47,13.48-7.78h0s30.94-8.29,30.94-8.29c.87,3.29,2.61,6.41,5.19,8.99Z"/>
      <path class="cls-2" d="m20.3,149.46c11.07,0,20.04,8.98,20.04,20.05s-8.97,20.04-20.04,20.04S.25,180.58.25,169.51s8.97-20.05,20.04-20.05Z"/>
    </g>
  </g>
</svg>