<?xml version="1.0" encoding="UTF-8"?>
<svg id="_レイヤー_1" data-name="レイヤー 1" xmlns="http://www.w3.org/2000/svg" viewBox="0 0 383.92 364.84">
  <defs>
    <style>
      .cls-1 {
        fill: #e0e43b;
      }

      .cls-2 {
        fill: #6fc3b3;
      }

      .cls-3 {
        fill: #d6bb18;
      }

      .cls-4 {
        fill: #0c6fa0;
      }
    </style>
  </defs>
  <g id="_ロゴマーク_カラー_" data-name="ロゴマーク（カラー）">
    <g>
      <path class="cls-1" d="m364.67,169.51c0,11.07-8.98,20.04-20.05,20.04s-20.04-8.97-20.04-20.04,8.97-20.04,20.04-20.04,20.05,8.97,20.05,20.04Z"/>
      <path class="cls-3" d="m271.35,82.07l30.94,8.29h0c4.93,1.31,9.61,3.91,13.48,7.78,11.74,11.74,11.74,30.78,0,42.52-11.74,11.74-30.78,11.74-42.52,0-3.87-3.87-6.47-8.54-7.79-13.48h.01l-8.29-30.94c3.29-.87,6.41-2.61,8.99-5.19s4.31-5.69,5.18-8.98Z"/>
      <path class="cls-2" d="m234.91,123.53l41.31,31.71h0c4.06,3.11,7.37,7.29,9.47,12.35,6.36,15.35-.93,32.93-16.27,39.29-15.34,6.35-32.93-.93-39.28-16.27-2.1-5.06-2.71-10.37-2.04-15.43h0l6.8-51.63Z"/>
      <path class="cls-1" d="m257.18,96.24l-5.19-19.36,19.36,5.19c-.87,3.29-2.6,6.4-5.18,8.98s-5.69,4.32-8.99,5.19Z"/>
      <path class="cls-4" d="m229.09,68.86c3.91,2.11,7.16,5.54,8.99,9.97,1.4,3.37,1.8,6.91,1.36,10.29h0l-.4,3.05c-.42-.36-.82-.73-1.22-1.12-2.58-2.58-4.32-5.69-5.19-8.99h0l-3.54-13.2Z"/>
      <path class="cls-2" d="m257.18,96.24c-6.18,1.65-13.01.3-18.15-4.07l.4-3.05h0c.44-3.38.04-6.92-1.36-10.29-1.83-4.43-5.08-7.86-8.99-9.97l-5.45-20.33,33.53,8.99h0c3.29.87,6.4,2.61,8.99,5.19,5.24,5.25,6.97,12.68,5.18,19.36l-19.36-5.19,5.19,19.36Z"/>
      <path class="cls-1" d="m201.51,62.86c0-3.16,2.56-5.72,5.72-5.72s5.71,2.56,5.71,5.72-2.56,5.71-5.71,5.71-5.72-2.56-5.72-5.71Z"/>
      <path class="cls-3" d="m218.28,245.32c0,16.6-13.46,30.07-30.07,30.07s-30.07-13.46-30.07-30.07c0-5.48,1.47-10.61,4.03-15.04h0l4.97-8.61c5.42,5.32,12.87,8.61,21.07,8.61s15.63-3.29,21.06-8.61l4.97,8.61h0c2.56,4.42,4.03,9.56,4.03,15.04Z"/>
      <path class="cls-3" d="m218.28,200.22c0,8.4-3.45,16-9.01,21.46l-21.06-36.49-21.07,36.49c-5.56-5.46-9.01-13.05-9.01-21.46,0-5.48,1.47-10.61,4.03-15.04h0l26.04-45.1,26.03,45.1h0c2.56,4.42,4.03,9.56,4.03,15.04Z"/>
      <path class="cls-2" d="m207.36,102.41c-2.71-2.08-4.92-4.87-6.32-8.24-1.44-3.47-1.83-7.12-1.32-10.58,5.16,3.62,8.53,9.63,8.53,16.41,0,.99-.07,1.98-.22,2.93l-.68-.52h0Z"/>
      <path class="cls-3" d="m211.07,23.11c0,12.63-10.24,22.87-22.86,22.87s-22.87-10.24-22.87-22.87S175.58.25,188.21.25s22.86,10.24,22.86,22.86Z"/>
      <path class="cls-1" d="m239.03,92.17l-4.13,31.36-26.87-20.61c.14-.95.22-1.94.22-2.93,0-6.78-3.37-12.78-8.53-16.41,1-6.74,5.41-12.81,12.17-15.61,5.8-2.4,12.08-1.88,17.2.88l3.54,13.2h0c.87,3.29,2.61,6.41,5.19,8.99.4.4.8.77,1.22,1.12Z"/>
      <path class="cls-1" d="m188.21,185.18l21.06,36.49c-5.42,5.32-12.86,8.61-21.06,8.61s-15.64-3.29-21.07-8.61l21.07-36.49Z"/>
      <path class="cls-4" d="m168.38,102.92l.68-.52h0c2.71-2.07,4.92-4.86,6.32-8.23,1.44-3.47,1.83-7.11,1.32-10.57,3.26-2.3,7.23-3.64,11.52-3.64s8.26,1.34,11.51,3.64c-.51,3.46-.12,7.11,1.32,10.58,1.4,3.37,3.61,6.16,6.32,8.24h0s.68.52.68.52c-.38,2.55-1.23,4.95-2.47,7.1h0s-17.36,30.06-17.36,30.06l-17.36-30.07c-1.24-2.14-2.1-4.54-2.47-7.1Z"/>
      <path class="cls-1" d="m168.16,99.99c0-6.78,3.37-12.78,8.53-16.4.51,3.46.12,7.1-1.32,10.57-1.4,3.37-3.61,6.16-6.32,8.24h0s-.68.51-.68.51c-.14-.95-.22-1.93-.22-2.92Z"/>
      <path class="cls-2" d="m169.06,68.57c-3.16,0-5.72-2.56-5.72-5.71s2.56-5.72,5.72-5.72,5.71,2.56,5.71,5.72-2.55,5.71-5.71,5.71Z"/>
      <path class="cls-2" d="m141.51,123.53l-4.13-31.36c.42-.36.82-.73,1.22-1.12,1.29-1.29,2.37-2.72,3.23-4.23.87-1.51,1.52-3.11,1.96-4.76l3.54-13.19c5.12-2.77,11.4-3.29,17.2-.89,6.76,2.8,11.17,8.87,12.17,15.61-5.16,3.62-8.53,9.62-8.53,16.4,0,.99.07,1.97.22,2.92l-26.87,20.62Z"/>
      <path class="cls-4" d="m138.6,91.05c-.4.4-.8.77-1.22,1.12l-.4-3.05c-.45-3.38-.04-6.92,1.36-10.29,1.83-4.43,5.07-7.85,8.99-9.96l-3.54,13.19c-.44,1.65-1.09,3.25-1.96,4.76-.86,1.51-1.94,2.94-3.23,4.23Z"/>
      <path class="cls-1" d="m90.72,167.58c2.1-5.06,5.42-9.24,9.47-12.35h0s41.31-31.7,41.31-31.7l6.8,51.63h0c.67,5.06.06,10.37-2.04,15.43-6.35,15.34-23.94,22.62-39.28,16.27-15.35-6.36-22.63-23.94-16.27-39.29Z"/>
      <path class="cls-2" d="m105.07,82.07l19.36-5.19-5.19,19.36c-3.29-.87-6.4-2.6-8.98-5.19-2.58-2.58-4.32-5.69-5.19-8.98Z"/>
      <path class="cls-1" d="m105.07,82.07c-1.79-6.69-.06-14.12,5.19-19.36,2.58-2.58,5.69-4.32,8.99-5.19l33.53-8.99-5.45,20.34c-3.92,2.11-7.15,5.53-8.99,9.96-1.4,3.37-1.81,6.91-1.36,10.29l.4,3.05c-5.14,4.36-11.96,5.72-18.15,4.07l5.19-19.36-19.36,5.19Z"/>
      <path class="cls-3" d="m60.64,140.66c-11.74-11.74-11.74-30.78,0-42.52,3.88-3.88,8.54-6.47,13.48-7.79h0s30.94-8.28,30.94-8.28c.87,3.29,2.61,6.4,5.19,8.98,2.58,2.59,5.69,4.32,8.98,5.19l-8.29,30.94h0c-1.32,4.94-3.91,9.61-7.79,13.48-11.74,11.74-30.78,11.74-42.52,0Z"/>
      <circle class="cls-2" cx="31.79" cy="169.51" r="20.04"/>
    </g>
  </g>
  <g id="_ロゴタイプ_カラー_" data-name="ロゴタイプ（カラー）">
    <g id="_祭" data-name="祭">
      <path class="cls-3" d="m332.63,296.13h-12.79c.82-1.89.74-2.87,1.37-4.21,1.79-.18-2.45-1.09-4.87-1.53-.76,7.63-6.18,17.34-11.34,21.78-3.42,2.94-6.03,4.26-6.03,4.26,0,0,4.74-.93,8.48-3.39,5.73-3.75,9.34-10.71,11.07-14.41l12.36-.08c-3.77,12.86-10.08,22.37-20.78,31.08-3.54,2.89-10.72,6.07-10.72,6.07,0,0,4.32-.09,9.79-2.73,10.67-5.15,20.02-15.97,26.72-32.54,3.4-.63-3.27-4.03-3.27-4.3Z"/>
      <path class="cls-3" d="m324.57,343.06c-3.12-2.34-4.57.35-5.52,2.04-3.01,5.34-6.78,9.2-10.25,12.03-3.04,2.48-7.78,4.59-7.78,4.59,0,0,4.22-.74,7.38-1.95,6.47-2.48,10.12-4.73,16.15-11.59,1.38-1.57,1.86-3.73.03-5.11Z"/>
      <path class="cls-2" d="m381,331.46c-1.97,1-3.5,2.41-5.32,4.22.04.02.07.03.07.03,4.24.23,8.18-4.56,8.18-4.56,0,0-2.79.32-2.92.31Z"/>
      <path class="cls-3" d="m356.04,315.02c3.85-3.31,9.07-8.62,13.79-13.92.63.09,1.08.18,1.52.18,1.61,0-4.61-6.04-5.42-5.24l-5.78.4c-2.6,0-10.03.45-11.39-.23.09,1.16,1.15,3.77,1.9,4.47,1.56,1.47,3.98-1.11,6.86-1.35,1.27-.11,7.39-.16,7.39-.16-2.78,5.28-6.82,10.02-10.31,13.96-4.03-5.37-7.61-12-10.48-20.06,0-.18-.18-2.15-1.43-2.15-.09,0-2.33.45-2.33,1.7,0,.36.27.63.27.63.9.81,2.28,2.09,2.64,2.99,11.26,30.07,31.12,38.89,32.4,39.43,1.82-1.81,3.35-3.22,5.32-4.22-6.34-.53-18.28-8.27-24.96-16.44Z"/>
      <path class="cls-3" d="m341.12,295.4l4.25.84-1.36-4.3h0c-.13-.42-.37-.81-.71-1.12-1.03-.95-2.62-.82-3.54.28s-.83,2.76.2,3.71c.34.31.74.51,1.16.59h0Z"/>
      <path class="cls-3" d="m368.57,294.43l-5.48,3.16,5.62,3.41h0c.55.34,1.19.54,1.86.55,2.04.05,3.66-1.62,3.62-3.71s-1.74-3.83-3.78-3.88c-.67-.02-1.3.16-1.84.47h0Z"/>
      <path class="cls-3" d="m331.19,297.28l-1.51,6.14,6.35-1.69h0c.62-.16,1.21-.48,1.69-.96,1.45-1.44,1.37-3.76-.17-5.18s-3.97-1.4-5.42.04c-.48.48-.79,1.05-.94,1.65h0Z"/>
      <path class="cls-3" d="m318.06,304.27c-1.93-.54-4.38-.73-6.22-.85,0,0,3.07,1.98,3.85,2.94,1.41,1.74,1.75,2.81,1.96,3.57.15.55.35,1.83.71,2.29,1.08,1.38,3.06,1.56,4.42.39s1.66-3.17.71-4.64c-1.37-2.12-3.38-3.13-5.43-3.7Z"/>
      <path class="cls-1" d="m312.19,313.58c-1.79-.72-4.11-1.16-5.86-1.46,0,0,2.73,2.21,3.38,3.21,1.16,1.8,1.38,2.86,1.51,3.61.09.54.15,1.79.44,2.26.88,1.43,2.76,1.81,4.19.83s1.91-2.86,1.15-4.36c-1.09-2.17-2.9-3.34-4.8-4.1Z"/>
      <path class="cls-3" d="m317.94,285.07c-2.8-.68-3.64-.28-5.36-.04,0,0,1.87.09,2.44.51,1.2.89,1.26,2.98,1.31,3.86.04.63-.05,2.08.22,2.66.84,1.76,2.95,2.42,4.72,1.48s2.55-3.15,1.67-4.89c-1.06-2.1-3.48-3.21-5-3.58Z"/>
      <path class="cls-3" d="m363.4,347.13c-3.57-1.89-13.88-5.98-14.52-5.79,0,0,9.03,5.56,11.25,7.52s3.89,5.07,3.94,6.35c.02.67-.06,2.18.23,2.78.88,1.84,3.1,2.54,4.94,1.55s2.38-3.18,1.75-5.13c-1.01-3.12-3.15-4.94-7.6-7.29Z"/>
      <path class="cls-3" d="m359.72,331.23c-12.74,4.59-33.03,3.56-41.78,2.37-3.03-.41-4.72-1.65-4.72-1.65,1.82,4.37,4.57,5.37,7.61,5.46,8.84.28,33.94-3.54,38.59.42,0,0,0,0,0,0,.55.35,1.19.57,1.88.6,2.1.1,3.89-1.53,3.99-3.64s-1.53-3.89-3.64-3.99c-.69-.03-1.35.12-1.93.42,0,0,0,0,0,0Z"/>
      <path class="cls-3" d="m333.99,357.07c-2.71-.18-9.21-.49-9.21-.49,0,0,5.06,1.76,7.09,3.2.71.51,2.07,1.62,2.66,2.26.47.51,1.63,2.17,2.29,2.46,2,.89,4.29-.08,5.11-2.17s-.13-4.51-2.13-5.4c-.66-.29-1.35-.39-2.01-.3,0,0-2.85.5-3.8.44Z"/>
      <path class="cls-3" d="m337.77,335.58l4.39-.97v14.06c0,7.61,0,6.95.09,7.94,0,.18-.02,4.32-.04,4.5-.5,4.62-6.33-2.95-8.54-4.06,1.87.25,4.1-.49,4.1-2.73v-18.74Z"/>
      <path class="cls-3" d="m348.85,318.79c-6.54,2.82-9.76,2.27-17.41,2.16-2.65-.04-4.92-1.7-4.92-1.7,2.02,3.57,4.45,4.97,7.06,4.69,8.2-.86,11.43-1.59,15.7.54,0,0,0,0,0,0,.51.24,1.08.36,1.68.32,1.82-.14,3.18-1.73,3.04-3.55s-1.73-3.18-3.55-3.04c-.6.05-1.15.25-1.61.57,0,0,0,0,0,0Z"/>
      <polygon class="cls-2" points="307.44 313.04 308.25 312.48 306.33 312.12 307.44 313.04"/>
    </g>
    <g id="_ね" data-name="ね">
      <path class="cls-3" d="m231.28,314.47c1.98,0,3.17-.75,4.49-1.57,1.69-1.06,4.64-2.67,5.47-3.12.14-.08.24-.22.26-.38.4-2.79.8-5.5,1.36-8.46.08-.5.17-.99.17-1.48,0,.19,2.89.28,4.22.43.36.04.58.42.44.75-.2.46-.47.92-.7,1.38-.33.58-.74,1.24-.91,1.98-.53,1.51-.78,2.25-1.14,3.7-.05.21.02.44.2.58,1.03.8,2.31,3.62,2.81,4.63.33.67.12.53-4.99,6.88-.06.08-.11.18-.13.28-.14.77-.14,1.54-.22,2.24,4.95-4.95,11.71-10.06,17.24-13.61,3.3-2.14,6.68-3.46,9.73-3.46,12.62,0,13.25,20.47,12.86,23.91-.22,1.96-.91,8.58-2.47,11.71,8.16,4.37,9.02,4.09,10.73,5.35,1.13.83.26,5.26-1.06,5.26-.58,0-2.16,1.01-2.79.51-2.3-1.79-5.02-5.47-8.94-7.91-5.69,7.59-13.69,7.59-14.93,7.59-7.01,0-10.72-4.37-10.72-8,0-3.05,3.79-7.09,12.21-7.09h.49c3.63,0,6.4.56,9.86,1.97,1.24-2.56,2.06-6.4,2.45-11.31.92-11.55-1.12-20.64-7.06-20.64-8,0-24.78,16.36-27.76,20.3-.06.08-.09.17-.1.27-.07,1.35-.07,2.7-.07,3.97,0,4.21.25,7.83.58,10.47.17,1.73,2.32,9.23,2.42,10.05.31,2.42-2.52,3.34-3.59,3.34-1.65,0-2.92-.76-3.1-2.07s1.19-4.04-3.18-10.06c-.25-.33-1.94-2.79-1.94-2.79,0,0,1.7,1.68,2.03,2.01,1.73,1.65,1.75,1.67,3.48,3.07.17.17.25.17.33.17s.17,0,.17-.08c.17-.25.17-.74.17-1.4-.08-2.14-.17-4.7-.17-7.59,0-1.93.05-3.98.12-6.17.02-.52-.64-.77-.97-.37-1.45,1.76-3.3,4.16-4.72,6.23-2.91,4.23-5.1,9.47-6.85,11.21-1.42,1.42-5.47-.19-5.47-1.59v-.08c0-.81,2.19-3.8,3.12-4.61.04-.03.07-.05.11-.07,3.78-1.55,8-8.06,15.34-20.86.04-.07.07-.15.07-.24.14-1.99.39-4.03.67-6.13.06-.46-.45-.79-.84-.53-.83.54-1.53,1.05-2.36,1.82-.02.02-.03.03-.05.05-3.36,3.77-4.45,5.34-5.36,5.34-1.98,0-1-2.72-1-5.78m33.66,23.97c-4.93-1.01-10.64.39-10.03,5.05.34,2.53,3.79,4.62,7.67,4.62,6.6,0,9.26-4.75,10.58-6.65-2.97-1.4-4.01-2.16-8.22-3.02Z"/>
      <path class="cls-3" d="m243.16,308.53l-2.89,2.37,3.02,3.76h0c.51.31,1.11.5,1.73.51,1.9.04,3.41-1.51,3.37-3.46s-1.62-3.57-3.53-3.61c-.63-.01-1.21.15-1.71.43h0Z"/>
      <path class="cls-3" d="m244.87,350.59l-2.98-4.8-2.88,5.12h0c-.28.5-.44,1.07-.44,1.68.02,1.83,1.55,3.22,3.42,3.12s3.37-1.66,3.35-3.49c0-.6-.18-1.16-.47-1.63h0Z"/>
      <path class="cls-3" d="m228.02,344.29l.45-5.8-5.51,2.49h0c-.54.24-1.02.62-1.38,1.13-1.1,1.53-.68,3.62.94,4.67s3.81.67,4.91-.85c.36-.5.56-1.07.6-1.64h0Z"/>
      <path class="cls-3" d="m287.84,345.73l-4.13.51,2.73,5.37h0c.41.43.93.75,1.53.92,1.81.51,3.63-.59,4.08-2.47s-.44-3.75-2.25-4.26c-.6-.17-1.41-.23-1.96-.08h0Z"/>
      <path class="cls-3" d="m225.7,316.28c-.97-1.6-1.76-3.75-2.33-5.38,0,0,2.54,2.26,3.61,2.72,1.91.83,2.96.87,3.7.87.53,0,1.73-.14,2.23.06,1.51.62,2.16,2.35,1.46,3.87-.7,1.52-2.43,2.28-3.99,1.8-2.25-.7-3.65-2.25-4.68-3.95Z"/>
      <path class="cls-3" d="m244.6,293.52c-3.58-1.17-6.43-.87-7.03-.69,0,0,2.69.36,3.69,1.05,2,1.38,1.64,2.83,1.69,3.69.04.62-.05,2.03.22,2.6.82,1.72,2.89,2.36,4.61,1.44s2.49-3.08,1.63-4.78c-1.04-2.05-3.37-2.84-4.82-3.31Z"/>
      <polygon class="cls-2" points="277.91 344.07 273.16 341.46 274.83 338.53 279.97 340.85 277.91 344.07"/>
    </g>
    <g id="_か" data-name="か">
      <path class="cls-3" d="m162.96,347.94c3.07.04,2.6-1.08,4.22-.78,8.56,1.6,14.18-15.16,14.09-25.01-.09-9.6-3.31-11.09-7.72-9.69-1.78.57-2.63.76-5.16,1.73-4.88,11.8-10.91,23.16-16.2,34.47-.49,1.14-1.87,3.82-2.36,4.96-.81,1.71-3.01,2.52-3.83,2.52-.32,0-.81-.08-.98-.24-.98-.81-2.27-4.23-2.27-4.88,0-.57.4-.94.81-1.34,5.37-5.37,16.26-20.96,21.47-34.39-2.44.81-8.2,3.26-9.26,3.75-2.03,1.06-3.8,1.5-4.97,1.42-.51-.03-1.67-.58-1.67-4.56,0-.65-2.86-.04-2.54-.04s1.75.56,2.24.88c1.3.89.67-2.09,2.95-2.11,2.68-.02,12.78-1.7,14.16-2.11,1.22-3.5,2.87-10.89,2.87-12.51,0-.32-.04-.6-.12-.86,0,.41,5.46,1.16,5.22,1.57-.16.24-.32.57-.57.81-.41.65-.65,1.22-.73,1.46-.98,2.93-2.03,5.78-3.17,8.63,1.95-.41,3.91-.73,5.45-.73,5.13,0,9.36,3.26,9.36,13.35,0,16.68-7.97,29.95-17.5,29.95-1.06,0-1.95-.32-2.36-1.55-.24-.73-1.03-4.06-1.44-4.71Zm42.96-11.71c-1.46-1.63-4.71-2.96-6.65-3.16s-7.04-.12-7.04-.12c0,0,4.48-.82,6.16-1.09,5.62-.87,6.7-1.83,6.7-3.38,0-4.31-2.6-9.24-7.77-12.56-4.03-2.6-7.77-3.22-7.77-3.22,0,0,4.32.21,8.11,1.5,5.37,1.84,12.38,6.94,13.7,18.78.13,1.2-.28,2.44-.9,3.09-.44.46-1.05.96-2.52.96-.57,0-1.53-.22-2.02-.79Z"/>
      <path class="cls-3" d="m163.89,346.49c-1.75-.46-2.76-2.3-2.76-2.3,0,0-.1,2.57.11,3.75.35,1.99,1.01,3.79,3.08,5.39,1.49,1.15,3.53,1.06,4.75-.43s1.08-3.72-.32-4.97c-.46-.41-1-.68-1.56-.77-1.13-.19-2.18-.38-3.29-.67Z"/>
      <path class="cls-3" d="m149.77,352.97l.58-6.34-6.07,2.64h0c-.6.26-1.13.66-1.53,1.21-1.22,1.65-.8,3.95.95,5.13s4.16.8,5.38-.86c.4-.55.63-1.16.68-1.78h0Z"/>
      <path class="cls-3" d="m145.57,316.45c-.95-1.58-1.73-3.7-2.29-5.3,0,0,2.51,2.23,3.56,2.69,1.89.82,2.92.86,3.65.86.52,0,1.71-.14,2.2.06,1.49.61,2.14,2.32,1.44,3.82s-2.4,2.25-3.94,1.77c-2.22-.69-3.61-2.22-4.62-3.89Z"/>
      <path class="cls-1" d="m168.86,294.4c-3.71,0-6.29,1.15-6.8,1.51,0,0,2.63-.49,3.79-.15,2.3.68,2.41,2.15,2.72,2.94.22.57.57,1.92,1,2.37,1.3,1.36,3.43,1.33,4.77-.06,1.33-1.39,1.39-3.65.06-4.98-1.6-1.6-4.03-1.62-5.54-1.62Z"/>
    </g>
    <g id="_ち" data-name="ち">
      <path class="cls-3" d="m87.25,297.48c.08.24,5.41.09,5.41.25,0,.24-.12,1.31-1.26,4.15-.73,2.44-2.52,8.54-3.17,10.58-3.17,10.17-5.61,18.96-5.61,20.59,0,.16.08.24.16.24.24,0,.49-.16.73-.32,11.8-7,20.26-7.49,23.36-7.49,9.85,0,16.1,5.14,16.44,11.56.58,11-12.61,20.61-30.17,19.56-8.04-.48-15.37-4.63-15.37-4.63,0,0,6.88,2.16,16.67,1.57,14.51-1.57,21.97-8.94,24.18-13.91,2.97-6.69-2.27-13.75-11.98-12.35-6.93,1-16.37,5.28-20.52,9.67-.65.65-1.58,2.51-2.11,3.19-1.46,1.86-2.04-.02-3.26-.02-3.34-.33-3.91-2.85-3.91-2.85,0-.81,1.07-2.39,1.48-3.45,2.03-6.1,4.62-13.64,6.41-20.47,1.87-7.97,2.85-12.78,2.85-13.67,0-.83-.09-1.57-.33-2.21Z"/>
      <path class="cls-3" d="m84.4,339.11l1.33-6.26-6.38,1.92h0c-.63.19-1.21.53-1.67,1.03-1.42,1.51-1.27,3.85.34,5.24s4.06,1.29,5.48-.22c.47-.5.77-1.09.9-1.7h0Z"/>
      <path class="cls-3" d="m87.46,293.03c-3.71,0-6.29,1.15-6.8,1.51,0,0,2.63-.49,3.79-.15,2.3.68,2.41,2.15,2.72,2.94.22.57.57,1.92,1,2.37,1.3,1.36,3.43,1.33,4.77-.06s1.39-3.65.06-4.98c-1.6-1.6-4.03-1.62-5.54-1.62Z"/>
      <path class="cls-3" d="m101.36,303.84c-11.52,4.75-17.8,7.32-25.92,7.1-3.6-.1-7.8-3.77-7.8-3.77,1.86,3.94,4.03,8.22,8.14,8.22,8.14,0,19.55-9.08,25.58-5.47,0,0,0,0,0,0,.52.3,1.12.47,1.76.47,1.94,0,3.51-1.57,3.51-3.51s-1.57-3.51-3.51-3.51c-.64,0-1.24.17-1.76.47,0,0,0,0,0,0Z"/>
      <polygon class="cls-1" points="88.49 311.64 84.73 313.36 85.58 309.69 89.43 308.51 88.49 311.64"/>
    </g>
    <g id="_ま" data-name="ま">
      <path class="cls-3" d="m16.15,342.03c-7.93-.22-13.19.46-11.98,5.83.86,3.81,6.34,5.15,11.1,5.14,6.44-.01,10.27-3.51,10.84-9.21-2.69-.57-6.05-1.64-9.96-1.75Zm9.52-44.94l5.55.75c-.16.57-.72,1.48-.81,1.96-1.86,10.44-.47,30.88-.47,32.84.08,3.26.19,6.16.27,8.44,9.62,2.45,15.83,4.87,18.44,7.07,1.06.82-.46,3.32-.46,4.54,0,1.39,1.05.6-.01.6-.65,0-2.54,1.48-3.52.34-3.34-3.91-7.84-6.27-14.37-8.71-.9,8.89-6.33,12.6-15.24,12.6-7.73,0-13-4.36-13-9.74,0-6.11,8.72-7.99,16.88-7.99,1.63,0,4.32,0,7.26.57,0-2.2-.08-4.65-.08-7.58v-5.87c-.08-3.91-.24-14.35-.33-18.83-.08-2.69-.12-8.13-.12-10.98Z"/>
      <path class="cls-1" d="m45.76,347.56l-6.42,1.58,5.03,4.32h0c.41.43.93.75,1.53.92,1.81.51,3.64-.59,4.09-2.47s-.66-3.82-2.47-4.34c-.6-.17-1.2-.16-1.75-.01h0Z"/>
      <path class="cls-3" d="m25.55,291.83c-3.62,0-6.13,1.12-6.62,1.47,0,0,2.56-.48,3.69-.14,2.24.66,2.35,2.09,2.65,2.86.22.55.56,1.87.98,2.3,1.26,1.32,3.34,1.3,4.64-.06s1.35-3.56.06-4.85c-1.56-1.56-3.92-1.58-5.39-1.58Z"/>
      <path class="cls-3" d="m41.32,303.87c-11.21,4.62-23.22,6.5-31.1,5.79-2.72-.25-10.22-3.89-10.22-3.89,2.97,5.49,4.62,6.92,9.82,7.37,7.89.68,24.46-5.89,31.5-3.36,0,0,0,0,0,0,.5.29,1.09.46,1.71.46,1.89,0,3.42-1.53,3.42-3.42s-1.53-3.42-3.42-3.42c-.62,0-1.21.17-1.71.46,0,0,0,0,0,0Z"/>
      <path class="cls-3" d="m38.68,319.76c-11.21,4.62-19.1,5.13-26.97,4.42-2.72-.25-7.59-2.59-7.59-2.59,1.81,3.84,5.59,6.32,8.31,6.28,7.92-.11,17.1-5.02,26.26-2.2,0,0,0,0,0,0,.5.29,1.09.46,1.71.46,1.89,0,3.42-1.53,3.42-3.42s-1.53-3.42-3.42-3.42c-.62,0-1.21.17-1.71.46,0,0,0,0,0,0Z"/>
      <polygon class="cls-2" points="29.52 310.06 25.83 310.78 25.79 308.53 29.61 307.68 29.52 310.06"/>
    </g>
  </g>
</svg>